<svg width="86" height="24" viewBox="0 0 86 24" fill="none" xmlns="http://www.w3.org/2000/svg">
<path d="M3.94697 23.7608H0.131566C0.0438552 23.7608 0 23.706 0 23.5964L0.0657828 0.45728C0.0657828 0.369569 0.109638 0.325714 0.197348 0.325714H21.0395C22.2565 0.325714 23.3748 0.621737 24.3944 1.21378C25.4141 1.80583 26.2254 2.6007 26.8284 3.59841C27.4424 4.59611 27.7494 5.72538 27.7494 6.98622C27.7494 7.8085 27.6233 8.55404 27.3711 9.22283C27.1189 9.89162 26.8229 10.4563 26.483 10.9167C26.1541 11.3772 25.8526 11.7171 25.5785 11.9364C26.7955 13.2849 27.404 14.8692 27.404 16.6892L27.4369 23.5964C27.4369 23.706 27.3821 23.7608 27.2724 23.7608H23.457C23.3693 23.7608 23.3255 23.7279 23.3255 23.6621V16.6892C23.3255 15.8779 23.0404 15.1762 22.4703 14.5841C21.9002 13.9921 21.1985 13.6961 20.3652 13.6961H4.11142L4.07853 23.5964C4.07853 23.706 4.03468 23.7608 3.94697 23.7608ZM21.0395 4.35491H4.11142V9.65042H21.0395C21.7302 9.65042 22.3442 9.39277 22.8814 8.87747C23.4296 8.36217 23.7037 7.73176 23.7037 6.98622C23.7037 6.27357 23.4406 5.6596 22.9143 5.1443C22.3881 4.61804 21.7631 4.35491 21.0395 4.35491Z" fill="white"/>
<path d="M29.1472 23.5964L33.3245 0.45728C33.3464 0.369569 33.4012 0.325714 33.4889 0.325714H38.3733C38.461 0.325714 38.5158 0.369569 38.5377 0.45728L42.5505 23.5964C42.5614 23.706 42.5176 23.7608 42.4189 23.7608H38.6857C38.5761 23.7608 38.5158 23.706 38.5048 23.5964L38.143 21.1295H33.5547L33.1929 23.5964C33.1819 23.706 33.1271 23.7608 33.0284 23.7608H29.2788C29.1911 23.7608 29.1472 23.706 29.1472 23.5964ZM35.742 8.07163L34.229 17.5279H37.4688L36.0873 8.07163L35.89 6.82176L35.742 8.07163Z" fill="white"/>
<path d="M51.8423 23.7608H48.0433C47.9447 23.7608 47.8953 23.706 47.8953 23.5964V4.3878H43.5208C43.4111 4.3878 43.3563 4.33298 43.3563 4.22334L43.3892 0.45728C43.3892 0.369569 43.4331 0.325714 43.5208 0.325714H56.3155C56.4361 0.325714 56.4964 0.369569 56.4964 0.45728V4.22334C56.4964 4.33298 56.4526 4.3878 56.3649 4.3878H51.941L51.9739 23.5964C51.9739 23.706 51.93 23.7608 51.8423 23.7608Z" fill="white"/>
<path d="M69.1596 23.7608H58.2726C58.1849 23.7608 58.141 23.706 58.141 23.5964L58.1739 0.45728C58.1739 0.369569 58.2177 0.325714 58.3055 0.325714H69.1267C69.2144 0.325714 69.2583 0.380533 69.2583 0.490171V4.25623C69.2583 4.34394 69.2144 4.3878 69.1267 4.3878H62.2195V9.65042H69.1267C69.2144 9.65042 69.2583 9.69427 69.2583 9.78199L69.2912 13.5974C69.2912 13.6851 69.2473 13.729 69.1596 13.729H62.2195V19.6165H69.1596C69.2473 19.6165 69.2912 19.6713 69.2912 19.781V23.6293C69.2912 23.717 69.2473 23.7608 69.1596 23.7608Z" fill="white"/>
<path d="M76.2313 23.7608H72.4159C72.3281 23.7608 72.2843 23.706 72.2843 23.5964L72.3501 0.45728C72.3501 0.369569 72.3939 0.325714 72.4816 0.325714H79.2902C80.5071 0.325714 81.6254 0.621737 82.6451 1.21378C83.6647 1.80583 84.476 2.6007 85.079 3.59841C85.693 4.59611 86 5.72538 86 6.98622C86 7.8085 85.8739 8.55404 85.6217 9.22283C85.3696 9.89162 85.0736 10.4563 84.7337 10.9167C84.4048 11.3772 84.1033 11.7171 83.8292 11.9364C85.0462 13.2849 85.6546 14.8692 85.6546 16.6892L85.6875 23.5964C85.6875 23.706 85.6327 23.7608 85.5231 23.7608H81.7077C81.62 23.7608 81.5761 23.7279 81.5761 23.6621V16.6892C81.5761 15.8779 81.291 15.1762 80.7209 14.5841C80.1508 13.9921 79.4491 13.6961 78.6159 13.6961H76.3957L76.3628 23.5964C76.3628 23.706 76.319 23.7608 76.2313 23.7608ZM79.2902 4.35491H76.3957V9.65042H79.2902C79.9809 9.65042 80.5948 9.39277 81.1321 8.87747C81.6803 8.36217 81.9544 7.73176 81.9544 6.98622C81.9544 6.27357 81.6912 5.6596 81.165 5.1443C80.6387 4.61804 80.0138 4.35491 79.2902 4.35491Z" fill="white"/>
</svg>
